{
  "asset": {
    "version": "2.0",
    "generator": "CatAnnihilation"
  },
  "scene": 0,
  "scenes": [
    {
      "name": "Scene",
      "nodes": [0]
    }
  ],
  "nodes": [
    {
      "name": "Cat",
      "children": [1, 2, 3, 4, 5, 6, 7, 8, 9]
    },
    {
      "name": "Body",
      "mesh": 0,
      "translation": [0.0, 0.45, 0.0]
    },
    {
      "name": "Head",
      "mesh": 1,
      "translation": [0.0, 0.65, 0.2]
    },
    {
      "name": "EarLeft",
      "mesh": 2,
      "translation": [0.1, 0.85, 0.2]
    },
    {
      "name": "EarRight",
      "mesh": 2,
      "translation": [-0.1, 0.85, 0.2]
    },
    {
      "name": "LegFrontLeft",
      "mesh": 3,
      "translation": [0.1, 0.2, 0.15]
    },
    {
      "name": "LegFrontRight",
      "mesh": 3,
      "translation": [-0.1, 0.2, 0.15]
    },
    {
      "name": "LegBackLeft",
      "mesh": 3,
      "translation": [0.1, 0.2, -0.15]
    },
    {
      "name": "LegBackRight",
      "mesh": 3,
      "translation": [-0.1, 0.2, -0.15]
    },
    {
      "name": "Tail",
      "mesh": 4,
      "translation": [0.0, 0.55, -0.25]
    }
  ],
  "meshes": [
    {
      "name": "BodyMesh",
      "primitives": [
        {
          "attributes": {
            "POSITION": 0,
            "NORMAL": 1
          },
          "indices": 2,
          "material": 0
        }
      ]
    },
    {
      "name": "HeadMesh",
      "primitives": [
        {
          "attributes": {
            "POSITION": 3,
            "NORMAL": 4
          },
          "indices": 5,
          "material": 0
        }
      ]
    },
    {
      "name": "EarMesh",
      "primitives": [
        {
          "attributes": {
            "POSITION": 6,
            "NORMAL": 7
          },
          "indices": 8,
          "material": 0
        }
      ]
    },
    {
      "name": "LegMesh",
      "primitives": [
        {
          "attributes": {
            "POSITION": 9,
            "NORMAL": 10
          },
          "indices": 11,
          "material": 0
        }
      ]
    },
    {
      "name": "TailMesh",
      "primitives": [
        {
          "attributes": {
            "POSITION": 12,
            "NORMAL": 13
          },
          "indices": 14,
          "material": 0
        }
      ]
    }
  ],
  "accessors": [
    {
      "bufferView": 0,
      "componentType": 5126,
      "count": 24,
      "type": "VEC3",
      "max": [0.18, 0.18, 0.28],
      "min": [-0.18, -0.18, -0.28]
    },
    {
      "bufferView": 1,
      "componentType": 5126,
      "count": 24,
      "type": "VEC3"
    },
    {
      "bufferView": 2,
      "componentType": 5123,
      "count": 36,
      "type": "SCALAR"
    },
    {
      "bufferView": 3,
      "componentType": 5126,
      "count": 24,
      "type": "VEC3",
      "max": [0.14, 0.14, 0.14],
      "min": [-0.14, -0.14, -0.14]
    },
    {
      "bufferView": 4,
      "componentType": 5126,
      "count": 24,
      "type": "VEC3"
    },
    {
      "bufferView": 5,
      "componentType": 5123,
      "count": 36,
      "type": "SCALAR"
    },
    {
      "bufferView": 6,
      "componentType": 5126,
      "count": 6,
      "type": "VEC3",
      "max": [0.05, 0.12, 0.02],
      "min": [-0.05, 0.0, -0.02]
    },
    {
      "bufferView": 7,
      "componentType": 5126,
      "count": 6,
      "type": "VEC3"
    },
    {
      "bufferView": 8,
      "componentType": 5123,
      "count": 12,
      "type": "SCALAR"
    },
    {
      "bufferView": 9,
      "componentType": 5126,
      "count": 16,
      "type": "VEC3",
      "max": [0.035, 0.2, 0.035],
      "min": [-0.035, -0.2, -0.035]
    },
    {
      "bufferView": 10,
      "componentType": 5126,
      "count": 16,
      "type": "VEC3"
    },
    {
      "bufferView": 11,
      "componentType": 5123,
      "count": 24,
      "type": "SCALAR"
    },
    {
      "bufferView": 12,
      "componentType": 5126,
      "count": 20,
      "type": "VEC3",
      "max": [0.025, 0.2, 0.025],
      "min": [-0.025, -0.05, -0.025]
    },
    {
      "bufferView": 13,
      "componentType": 5126,
      "count": 20,
      "type": "VEC3"
    },
    {
      "bufferView": 14,
      "componentType": 5123,
      "count": 48,
      "type": "SCALAR"
    }
  ],
  "bufferViews": [
    {"buffer": 0, "byteOffset": 0, "byteLength": 288},
    {"buffer": 0, "byteOffset": 288, "byteLength": 288},
    {"buffer": 0, "byteOffset": 576, "byteLength": 72},
    {"buffer": 0, "byteOffset": 648, "byteLength": 288},
    {"buffer": 0, "byteOffset": 936, "byteLength": 288},
    {"buffer": 0, "byteOffset": 1224, "byteLength": 72},
    {"buffer": 0, "byteOffset": 1296, "byteLength": 72},
    {"buffer": 0, "byteOffset": 1368, "byteLength": 72},
    {"buffer": 0, "byteOffset": 1440, "byteLength": 24},
    {"buffer": 0, "byteOffset": 1464, "byteLength": 192},
    {"buffer": 0, "byteOffset": 1656, "byteLength": 192},
    {"buffer": 0, "byteOffset": 1848, "byteLength": 48},
    {"buffer": 0, "byteOffset": 1896, "byteLength": 240},
    {"buffer": 0, "byteOffset": 2136, "byteLength": 240},
    {"buffer": 0, "byteOffset": 2376, "byteLength": 96}
  ],
  "buffers": [
    {
      "byteLength": 2472,
      "uri": "data:application/octet-stream;base64,"
    }
  ],
  "materials": [
    {
      "name": "CatMaterial",
      "pbrMetallicRoughness": {
        "baseColorFactor": [0.9, 0.7, 0.5, 1.0],
        "metallicFactor": 0.0,
        "roughnessFactor": 0.7
      }
    }
  ]
}
