{
  "asset": {
    "version": "2.0",
    "generator": "regen_cat_dog_models.ts"
  },
  "scene": 0,
  "scenes": [
    {
      "name": "Scene",
      "nodes": [
        0
      ]
    }
  ],
  "nodes": [
    {
      "name": "Dog",
      "mesh": 0
    }
  ],
  "meshes": [
    {
      "name": "DogMesh",
      "primitives": [
        {
          "attributes": {
            "POSITION": 0,
            "NORMAL": 1
          },
          "indices": 2,
          "material": 0
        }
      ]
    }
  ],
  "accessors": [
    {
      "bufferView": 0,
      "componentType": 5126,
      "count": 216,
      "type": "VEC3",
      "min": [
        -0.13,
        0,
        -0.44
      ],
      "max": [
        0.13,
        0.45999999999999996,
        0.48
      ]
    },
    {
      "bufferView": 1,
      "componentType": 5126,
      "count": 216,
      "type": "VEC3"
    },
    {
      "bufferView": 2,
      "componentType": 5123,
      "count": 324,
      "type": "SCALAR"
    }
  ],
  "bufferViews": [
    {
      "buffer": 0,
      "byteOffset": 0,
      "byteLength": 2592,
      "target": 34962
    },
    {
      "buffer": 0,
      "byteOffset": 2592,
      "byteLength": 2592,
      "target": 34962
    },
    {
      "buffer": 0,
      "byteOffset": 5184,
      "byteLength": 648,
      "target": 34963
    }
  ],
  "buffers": [
    {
      "byteLength": 5832,
      "uri": "data:application/octet-stream;base64,"
    }
  ],
  "materials": [
    {
      "name": "DogMaterial",
      "pbrMetallicRoughness": {
        "baseColorFactor": [
          0.4,
          0.3,
          0.22,
          1
        ],
        "metallicFactor": 0,
        "roughnessFactor": 0.8
      }
    }
  ]
}