{
  "asset": {
    "version": "2.0",
    "generator": "CatAnnihilation"
  },
  "scene": 0,
  "scenes": [
    {
      "name": "Scene",
      "nodes": [0]
    }
  ],
  "nodes": [
    {
      "name": "SpellOrb",
      "mesh": 0
    }
  ],
  "meshes": [
    {
      "name": "SpellOrbMesh",
      "primitives": [
        {
          "attributes": {
            "POSITION": 0,
            "NORMAL": 1
          },
          "indices": 2,
          "material": 0
        }
      ]
    }
  ],
  "accessors": [
    {
      "bufferView": 0,
      "componentType": 5126,
      "count": 18,
      "type": "VEC3",
      "max": [0.15, 0.15, 0.15],
      "min": [-0.15, -0.15, -0.15]
    },
    {
      "bufferView": 1,
      "componentType": 5126,
      "count": 18,
      "type": "VEC3"
    },
    {
      "bufferView": 2,
      "componentType": 5123,
      "count": 96,
      "type": "SCALAR"
    }
  ],
  "bufferViews": [
    {
      "buffer": 0,
      "byteOffset": 0,
      "byteLength": 216
    },
    {
      "buffer": 0,
      "byteOffset": 216,
      "byteLength": 216
    },
    {
      "buffer": 0,
      "byteOffset": 432,
      "byteLength": 192
    }
  ],
  "buffers": [
    {
      "byteLength": 624,
      "uri": "data:application/octet-stream;base64,"
    }
  ],
  "materials": [
    {
      "name": "SpellMaterial",
      "pbrMetallicRoughness": {
        "baseColorFactor": [0.5, 0.3, 1.0, 1.0],
        "metallicFactor": 0.0,
        "roughnessFactor": 0.3
      },
      "emissiveFactor": [0.3, 0.2, 0.6]
    }
  ]
}
