{
  "asset": {
    "version": "2.0",
    "generator": "CatAnnihilation"
  },
  "scene": 0,
  "scenes": [
    {
      "name": "Scene",
      "nodes": [0]
    }
  ],
  "nodes": [
    {
      "name": "Arrow",
      "mesh": 0
    }
  ],
  "meshes": [
    {
      "name": "ArrowMesh",
      "primitives": [
        {
          "attributes": {
            "POSITION": 0,
            "NORMAL": 1
          },
          "indices": 2,
          "material": 0
        }
      ]
    }
  ],
  "accessors": [
    {
      "bufferView": 0,
      "componentType": 5126,
      "count": 10,
      "type": "VEC3",
      "max": [0.02, 0.02, 0.25],
      "min": [-0.02, -0.02, -0.25]
    },
    {
      "bufferView": 1,
      "componentType": 5126,
      "count": 10,
      "type": "VEC3"
    },
    {
      "bufferView": 2,
      "componentType": 5123,
      "count": 48,
      "type": "SCALAR"
    }
  ],
  "bufferViews": [
    {
      "buffer": 0,
      "byteOffset": 0,
      "byteLength": 120
    },
    {
      "buffer": 0,
      "byteOffset": 120,
      "byteLength": 120
    },
    {
      "buffer": 0,
      "byteOffset": 240,
      "byteLength": 96
    }
  ],
  "buffers": [
    {
      "byteLength": 336,
      "uri": "data:application/octet-stream;base64,"
    }
  ],
  "materials": [
    {
      "name": "ArrowMaterial",
      "pbrMetallicRoughness": {
        "baseColorFactor": [0.6, 0.4, 0.2, 1.0],
        "metallicFactor": 0.1,
        "roughnessFactor": 0.7
      }
    }
  ]
}
