{
  "asset": {
    "version": "2.0",
    "generator": "CatAnnihilation"
  },
  "scene": 0,
  "scenes": [
    {
      "name": "Scene",
      "nodes": [0]
    }
  ],
  "nodes": [
    {
      "name": "Sword",
      "mesh": 0
    }
  ],
  "meshes": [
    {
      "name": "SwordMesh",
      "primitives": [
        {
          "attributes": {
            "POSITION": 0,
            "NORMAL": 1
          },
          "indices": 2,
          "material": 0
        }
      ]
    }
  ],
  "accessors": [
    {
      "bufferView": 0,
      "componentType": 5126,
      "count": 16,
      "type": "VEC3",
      "max": [0.08, 0.0, 0.5],
      "min": [-0.08, 0.0, -0.15]
    },
    {
      "bufferView": 1,
      "componentType": 5126,
      "count": 16,
      "type": "VEC3"
    },
    {
      "bufferView": 2,
      "componentType": 5123,
      "count": 60,
      "type": "SCALAR"
    }
  ],
  "bufferViews": [
    {
      "buffer": 0,
      "byteOffset": 0,
      "byteLength": 192
    },
    {
      "buffer": 0,
      "byteOffset": 192,
      "byteLength": 192
    },
    {
      "buffer": 0,
      "byteOffset": 384,
      "byteLength": 120
    }
  ],
  "buffers": [
    {
      "byteLength": 504,
      "uri": "data:application/octet-stream;base64,"
    }
  ],
  "materials": [
    {
      "name": "SwordMaterial",
      "pbrMetallicRoughness": {
        "baseColorFactor": [0.8, 0.8, 0.9, 1.0],
        "metallicFactor": 0.8,
        "roughnessFactor": 0.2
      }
    }
  ]
}
