{
  "asset": {
    "version": "2.0",
    "generator": "CatAnnihilation"
  },
  "scene": 0,
  "scenes": [
    {
      "name": "Scene",
      "nodes": [0]
    }
  ],
  "nodes": [
    {
      "name": "OakTree",
      "children": [1, 2]
    },
    {
      "name": "Trunk",
      "mesh": 0
    },
    {
      "name": "Foliage",
      "mesh": 1,
      "translation": [0.0, 2.0, 0.0]
    }
  ],
  "meshes": [
    {
      "name": "TrunkMesh",
      "primitives": [
        {
          "attributes": {
            "POSITION": 0,
            "NORMAL": 1
          },
          "indices": 2,
          "material": 0
        }
      ]
    },
    {
      "name": "FoliageMesh",
      "primitives": [
        {
          "attributes": {
            "POSITION": 3,
            "NORMAL": 4
          },
          "indices": 5,
          "material": 1
        }
      ]
    }
  ],
  "accessors": [
    {
      "bufferView": 0,
      "componentType": 5126,
      "count": 16,
      "type": "VEC3",
      "max": [0.35, 2.5, 0.35],
      "min": [-0.35, 0.0, -0.35]
    },
    {
      "bufferView": 1,
      "componentType": 5126,
      "count": 16,
      "type": "VEC3"
    },
    {
      "bufferView": 2,
      "componentType": 5123,
      "count": 36,
      "type": "SCALAR"
    },
    {
      "bufferView": 3,
      "componentType": 5126,
      "count": 42,
      "type": "VEC3",
      "max": [2.0, 2.0, 2.0],
      "min": [-2.0, -2.0, -2.0]
    },
    {
      "bufferView": 4,
      "componentType": 5126,
      "count": 42,
      "type": "VEC3"
    },
    {
      "bufferView": 5,
      "componentType": 5123,
      "count": 240,
      "type": "SCALAR"
    }
  ],
  "bufferViews": [
    {
      "buffer": 0,
      "byteOffset": 0,
      "byteLength": 192
    },
    {
      "buffer": 0,
      "byteOffset": 192,
      "byteLength": 192
    },
    {
      "buffer": 0,
      "byteOffset": 384,
      "byteLength": 72
    },
    {
      "buffer": 0,
      "byteOffset": 456,
      "byteLength": 504
    },
    {
      "buffer": 0,
      "byteOffset": 960,
      "byteLength": 504
    },
    {
      "buffer": 0,
      "byteOffset": 1464,
      "byteLength": 480
    }
  ],
  "buffers": [
    {
      "byteLength": 1944,
      "uri": "data:application/octet-stream;base64,"
    }
  ],
  "materials": [
    {
      "name": "TrunkMaterial",
      "pbrMetallicRoughness": {
        "baseColorFactor": [0.35, 0.22, 0.12, 1.0],
        "metallicFactor": 0.0,
        "roughnessFactor": 0.9
      }
    },
    {
      "name": "FoliageMaterial",
      "pbrMetallicRoughness": {
        "baseColorFactor": [0.15, 0.6, 0.2, 1.0],
        "metallicFactor": 0.0,
        "roughnessFactor": 0.85
      }
    }
  ]
}
